<?xml version="1.0" standalone="no"?>
<!DOCTYPE svg PUBLIC "-//W3C//DTD SVG 20010904//EN"
 "http://www.w3.org/TR/2001/REC-SVG-20010904/DTD/svg10.dtd">
<svg version="1.0" xmlns="http://www.w3.org/2000/svg"
 width="2402.000000pt" height="2402.000000pt" viewBox="0 0 2402.000000 2402.000000"
 preserveAspectRatio="xMidYMid meet">
<metadata>
Created by potrace 1.14, written by Peter Selinger 2001-2017
</metadata>
<g transform="translate(0.000000,2402.000000) scale(0.100000,-0.100000)"
fill="#000000" stroke="none">
<path d="M0 12010 l0 -12010 12010 0 12010 0 0 12010 0 12010 -3060 0 -3060 0
0 -67 c0 -38 -2 -333 -5 -658 -3 -324 -7 -1004 -10 -1510 -2 -506 -5 -1269 -7
-1696 -2 -427 -2 -781 0 -787 7 -23 43 -12 99 32 32 24 117 84 188 134 72 50
135 95 140 100 41 33 391 288 423 307 9 6 19 12 22 15 14 15 109 80 117 80 4
0 26 12 48 27 37 25 74 35 134 35 14 0 40 -16 65 -40 40 -40 127 -92 151 -92
21 0 33 -24 41 -79 l7 -53 -24 12 c-31 17 -77 15 -98 -4 -10 -9 -31 -21 -48
-27 -17 -5 -33 -19 -36 -30 -3 -10 -14 -19 -24 -19 -24 0 -43 -19 -43 -42 0
-10 -6 -18 -13 -18 -7 0 -19 -10 -27 -21 -32 -47 -46 -59 -68 -62 -13 -2 -34
-19 -48 -40 -13 -20 -29 -37 -34 -37 -6 0 -20 -20 -32 -45 -12 -25 -26 -45
-31 -45 -12 0 -67 -56 -67 -69 0 -6 -7 -11 -15 -11 -9 0 -19 -8 -22 -17 -4
-10 -11 -21 -16 -24 -5 -4 -10 -18 -9 -33 0 -21 -5 -26 -25 -26 -16 0 -27 -7
-30 -19 -3 -12 -11 -17 -19 -14 -19 7 -19 -36 1 -64 13 -19 13 -21 -5 -26 -10
-3 -28 1 -38 9 -11 7 -35 15 -53 16 -32 3 -34 1 -39 -32 -4 -30 -10 -36 -42
-45 -20 -5 -50 -22 -66 -37 -22 -19 -33 -23 -41 -15 -8 8 -11 5 -11 -11 0 -12
-4 -22 -10 -22 -5 0 -7 -6 -4 -13 6 -16 -12 -33 -41 -39 -14 -3 -19 -11 -18
-25 2 -15 -5 -24 -19 -29 -12 -3 -32 -19 -44 -34 -14 -17 -32 -26 -46 -25 -61
5 -157 -86 -117 -110 6 -5 3 -12 -9 -21 -11 -8 -23 -28 -27 -45 -4 -17 -13
-33 -21 -36 -17 -6 -19 -33 -3 -33 8 0 8 -5 -1 -15 -7 -8 -9 -15 -6 -15 4 0
-3 -10 -14 -22 -12 -13 -28 -35 -36 -50 -14 -27 -34 -38 -34 -18 0 6 -5 10
-11 10 -5 0 -7 -5 -4 -10 3 -6 -1 -13 -10 -16 -12 -5 -13 -9 -5 -14 15 -9 4
-30 -16 -30 -8 0 -14 -5 -14 -11 0 -6 -6 -9 -14 -6 -7 3 -23 -1 -34 -9 -17
-11 -19 -19 -12 -50 5 -22 4 -47 -2 -63 -9 -25 -10 -26 -24 -6 -13 17 -16 18
-24 5 -5 -8 -21 -16 -35 -17 -21 -1 -24 1 -16 11 13 15 5 46 -11 46 -7 0 -8
15 -4 40 6 36 4 40 -14 40 -20 0 -24 -9 -21 -41 1 -9 -5 -19 -13 -22 -17 -7
-30 8 -21 23 3 5 1 10 -4 10 -6 0 -11 -9 -11 -20 0 -10 -6 -23 -13 -27 -19
-11 -29 -44 -18 -57 6 -7 8 -22 4 -34 -6 -26 -44 -30 -63 -7 -7 8 -9 15 -4 15
5 0 -2 6 -16 13 -17 9 -24 20 -23 35 2 16 -3 22 -18 22 -13 0 -18 4 -13 12 4
6 3 8 -4 4 -6 -3 -26 2 -44 12 -18 10 -39 17 -46 15 -6 -3 -12 0 -12 6 0 6 -4
11 -10 11 -5 0 -10 -7 -10 -15 0 -8 -4 -15 -10 -15 -5 0 -10 7 -10 15 0 8 -4
15 -10 15 -5 0 -10 -5 -10 -11 0 -6 -6 -9 -12 -6 -7 2 -12 13 -10 25 7 52 -76
29 -161 -43 -33 -28 -43 -32 -59 -24 -11 6 -26 8 -35 5 -11 -5 -13 -2 -9 9 3
10 2 13 -5 10 -6 -4 -13 2 -16 14 -8 32 -35 23 -47 -16 -6 -18 -3 -23 9 -23 9
0 19 -8 22 -18 3 -14 12 -18 31 -15 25 4 26 3 7 -8 -11 -7 -29 -21 -39 -31
-11 -10 -24 -18 -29 -18 -5 0 -7 -6 -4 -14 3 -8 -2 -16 -14 -19 -12 -3 -17
-11 -13 -20 4 -11 -1 -13 -20 -10 -15 3 -33 0 -41 -7 -8 -6 -19 -9 -25 -5 -5
3 -10 0 -10 -7 0 -7 -30 -33 -67 -58 -37 -25 -69 -51 -71 -59 -3 -8 0 -11 6
-7 6 3 13 2 17 -4 3 -5 -2 -11 -12 -11 -10 -1 -30 -3 -46 -5 -17 -2 -25 1 -21
8 4 6 -3 5 -16 -2 -16 -9 -25 -9 -33 -1 -8 8 -8 11 1 11 19 0 14 17 -5 17 -40
2 -45 -6 -24 -33 23 -29 27 -44 12 -44 -5 0 -11 8 -14 18 -3 14 -6 13 -16 -8
-34 -71 -83 -126 -101 -115 -6 3 -10 1 -10 -5 0 -14 -40 -49 -57 -50 -7 0 -10
-6 -7 -14 3 -8 0 -23 -6 -33 -10 -16 -11 -16 -6 -1 3 10 0 20 -6 24 -7 4 -8 3
-4 -4 4 -7 -7 -18 -26 -28 -18 -9 -35 -20 -38 -24 -3 -4 -16 -13 -29 -20 -18
-9 -21 -14 -10 -20 10 -7 1 -20 -36 -54 -48 -43 -90 -61 -119 -50 -9 3 -17 -3
-22 -18 -4 -13 -15 -29 -26 -36 -16 -12 -17 -15 -3 -28 13 -14 13 -17 -1 -31
-22 -23 -1 -42 23 -21 23 20 68 35 59 19 -4 -6 -3 -11 3 -11 25 0 -4 -28 -34
-33 -19 -3 -44 -15 -57 -26 -12 -12 -30 -21 -40 -21 -10 0 -18 -4 -18 -10 0
-5 -8 -18 -17 -29 -10 -10 -34 -37 -53 -61 -19 -24 -50 -59 -67 -79 -18 -19
-33 -38 -33 -42 0 -4 -10 -5 -22 -1 -14 3 -19 1 -14 -6 3 -6 -4 -20 -16 -31
-16 -16 -24 -18 -30 -9 -5 9 -8 8 -8 -5 0 -17 -47 -43 -58 -32 -3 2 -11 0 -18
-6 -8 -7 -14 -7 -19 1 -3 5 -2 10 3 10 6 0 9 11 8 25 -1 32 -12 32 -20 0 -3
-13 -15 -29 -26 -35 -17 -9 -20 -8 -20 10 0 20 -11 26 -23 14 -3 -4 0 -13 8
-21 8 -8 15 -19 15 -24 0 -12 -17 -12 -25 1 -9 15 -25 12 -25 -5 0 -7 -6 -18
-14 -22 -22 -13 -60 -84 -49 -91 5 -4 12 -15 16 -24 5 -14 1 -18 -18 -18 -31
0 -33 -20 -2 -21 21 -1 21 -1 -3 -8 -26 -8 -30 -28 -14 -66 7 -19 7 -19 -9 -3
-9 9 -17 22 -17 29 0 7 -14 0 -30 -16 -17 -16 -28 -35 -25 -43 6 -15 -14 -144
-25 -161 -5 -9 -14 -9 -34 -1 -42 15 -76 2 -128 -52 -26 -26 -53 -48 -60 -48
-8 0 -24 -7 -36 -16 -12 -8 -26 -13 -31 -9 -5 3 -12 -8 -16 -25 -4 -17 -10
-28 -15 -25 -4 2 -16 -7 -26 -21 -11 -15 -23 -30 -29 -35 -5 -5 -22 -19 -37
-31 -16 -13 -30 -34 -32 -48 -2 -16 -9 -24 -20 -24 -9 1 -16 -5 -16 -13 0 -8
-4 -12 -8 -9 -5 3 -24 -10 -42 -29 -19 -19 -37 -35 -41 -35 -4 0 -27 -20 -52
-45 -26 -25 -51 -45 -57 -45 -6 0 -15 -12 -20 -26 -6 -14 -14 -23 -19 -19 -12
7 -18 -3 -22 -40 -4 -26 -1 -30 24 -32 15 -1 27 2 27 6 0 4 16 7 35 8 20 1 46
8 60 17 31 20 35 20 35 -1 0 -24 -59 -86 -75 -79 -8 3 -26 -7 -41 -21 -15 -14
-40 -30 -56 -35 -15 -6 -28 -13 -28 -18 0 -4 -27 -36 -60 -70 -33 -34 -60 -67
-60 -72 0 -5 -4 -7 -10 -3 -5 3 -18 -3 -30 -15 -11 -11 -29 -20 -39 -20 -11 0
-23 -5 -26 -11 -4 -6 -13 -8 -21 -5 -8 3 -17 -1 -21 -9 -3 -9 -10 -15 -17 -14
-18 3 -65 -19 -89 -42 -12 -12 -38 -33 -57 -48 -52 -39 -58 -46 -62 -72 -2
-16 -11 -25 -25 -27 -15 -2 -23 -10 -23 -22 0 -23 -40 -62 -56 -56 -7 3 -18
-1 -24 -9 -8 -10 -18 -11 -36 -5 -21 9 -24 7 -24 -15 0 -14 -6 -25 -13 -25 -7
0 -30 -20 -51 -45 -22 -25 -45 -45 -52 -45 -8 0 -14 -7 -14 -15 0 -8 -4 -15
-9 -15 -5 0 -8 -7 -7 -16 0 -9 -6 -18 -15 -19 -22 -4 -69 -46 -69 -61 0 -8 -6
-11 -13 -8 -7 2 -24 -7 -36 -20 -13 -14 -39 -30 -57 -36 -22 -8 -39 -23 -49
-43 -14 -29 -69 -73 -87 -69 -3 1 -12 -12 -19 -28 -14 -30 -47 -46 -63 -30
-12 12 34 51 52 45 7 -3 12 4 12 16 0 11 7 22 15 25 8 4 15 12 15 20 0 8 3 14
8 14 15 0 192 183 192 199 0 5 10 17 22 25 12 9 19 16 14 16 -5 0 13 20 38 45
26 25 52 45 57 45 5 0 9 6 9 13 0 7 5 18 12 25 9 9 14 7 23 -5 8 -11 14 -13
19 -5 4 7 2 12 -3 12 -14 0 -14 57 -1 65 6 4 8 10 5 15 -3 5 0 12 6 16 8 4 7
9 -2 15 -11 7 -10 9 3 9 20 0 48 37 48 65 0 11 32 53 73 96 78 82 251 232 280
242 9 3 17 13 17 21 0 8 6 19 13 23 6 4 29 28 49 53 56 70 155 170 167 170 6
0 11 3 11 8 1 14 355 378 424 435 36 30 46 45 46 68 0 16 -6 31 -12 34 -7 2
-1041 6 -2298 9 -3179 7 -4888 14 -7090 31 -486 3 -507 4 -570 25 -84 28 -103
41 -124 83 -14 31 -16 81 -16 399 0 402 -7 1273 -15 1783 -2 182 -7 672 -10
1090 -3 418 -7 924 -10 1125 -3 201 -8 637 -11 970 -4 333 -7 686 -9 785 -1
99 -2 390 -3 648 l-2 467 -2330 0 -2330 0 0 -12010z m19992 8525 c5 -25 -5
-40 -126 -191 -22 -27 -89 -100 -150 -161 -117 -119 -128 -125 -193 -102 -24
8 -32 18 -36 44 -3 18 -3 42 0 52 4 16 157 139 306 245 29 21 74 57 101 80 45
39 70 55 87 57 4 1 9 -10 11 -24z m-615 -452 c-4 -22 -2 -24 27 -18 58 12 68
17 62 31 -3 8 -1 14 4 14 6 0 10 -6 10 -12 1 -7 3 -37 6 -66 3 -42 0 -59 -18
-87 -21 -32 -26 -35 -57 -30 -55 10 -78 32 -97 92 l-18 56 33 29 c36 32 55 28
48 -9z m-760 -949 c-9 -9 -28 6 -21 18 4 6 10 6 17 -1 6 -6 8 -13 4 -17z
m-1493 -880 c-29 -26 -53 -22 -32 4 30 39 33 40 46 29 10 -8 8 -15 -14 -33z
m400 -30 c9 -24 7 -27 -9 -10 -17 17 -19 26 -6 26 5 0 12 -7 15 -16z m-429
-144 c-4 -13 -1 -22 9 -26 9 -3 16 -12 16 -20 0 -8 6 -14 14 -14 18 0 9 -96
-12 -130 -28 -43 -40 -68 -35 -73 2 -3 -1 -15 -7 -27 -11 -21 -12 -21 -25 -4
-7 10 -11 32 -8 49 2 16 0 43 -6 58 l-11 29 -89 -4 c-71 -4 -94 -9 -115 -26
-15 -11 -44 -26 -64 -33 -20 -6 -61 -28 -91 -47 -29 -20 -61 -36 -71 -37 -19
-1 -100 -80 -100 -96 0 -6 -9 -7 -21 -4 -14 5 -19 3 -15 -3 12 -20 -12 -21
-29 -1 -18 19 -18 20 16 49 19 16 37 29 41 30 4 0 22 14 40 30 18 17 38 30 44
30 7 0 14 3 16 8 5 10 86 48 134 61 22 6 51 22 64 36 13 14 26 25 30 25 4 0
26 18 50 40 28 26 52 40 66 38 11 -1 37 10 57 25 20 15 43 27 51 27 9 0 16 7
16 15 0 8 9 15 21 15 16 0 19 -4 14 -20z m78 -85 c-10 -7 -20 -12 -21 -10 -7
7 23 33 31 28 5 -3 0 -11 -10 -18z m-753 -331 c0 -1 -14 -12 -30 -24 -24 -17
-34 -19 -44 -11 -11 9 -15 9 -19 -1 -4 -9 -6 -9 -6 -1 -1 19 38 42 70 41 16
-1 29 -2 29 -4z m4091 -38 c97 -65 134 -97 149 -129 8 -18 19 -35 25 -39 13
-9 -13 -55 -45 -78 -14 -10 -48 -21 -76 -24 -67 -7 -79 -13 -93 -42 -13 -30 8
-103 35 -119 47 -28 65 -51 68 -90 5 -66 -72 -399 -123 -532 -11 -28 -25 -90
-31 -137 -6 -48 -15 -97 -19 -109 -19 -50 -44 -237 -42 -317 2 -60 8 -98 23
-130 11 -25 26 -63 33 -85 8 -22 25 -71 40 -109 17 -47 26 -90 27 -137 1 -60
-2 -72 -26 -104 -17 -22 -50 -46 -84 -62 -32 -14 -67 -30 -79 -36 -26 -12 -35
-6 -40 25 -2 12 -7 25 -11 28 -4 3 -8 22 -9 44 -3 60 -8 67 -38 56 -30 -11
-98 -57 -135 -92 -35 -31 -68 -49 -74 -40 -5 8 -50 7 -104 -4 -30 -6 -32 -4
-38 25 -6 28 -11 31 -43 32 -20 1 -41 1 -47 0 -5 0 -18 18 -28 42 -26 59 -44
77 -80 77 -17 0 -42 9 -55 19 -20 15 -23 24 -17 57 21 132 21 134 -8 134 -14
0 -45 -12 -68 -27 -90 -60 -114 -72 -148 -73 -21 0 -51 -10 -72 -25 -20 -14
-40 -25 -44 -25 -5 0 -23 -14 -41 -32 -28 -27 -37 -31 -60 -22 -32 11 -48 52
-58 154 -14 147 -6 186 62 302 18 31 33 63 33 70 0 20 59 74 95 89 17 6 89 15
160 19 72 4 140 12 150 18 11 6 47 23 79 38 74 34 128 82 148 131 9 21 33 81
54 133 20 52 47 118 60 145 41 90 55 128 111 295 88 264 131 367 169 406 19
19 41 34 49 34 23 0 30 49 11 80 -29 51 -21 95 27 145 23 24 53 49 67 54 44
19 103 7 161 -33z m-4193 -23 c2 -7 -2 -13 -10 -13 -7 0 -20 -9 -28 -20 -8
-11 -18 -20 -22 -20 -13 0 -9 20 10 45 18 26 42 29 50 8z m-111 -88 c-20 -20
-39 -45 -42 -55 -4 -12 -15 -20 -27 -20 -12 0 -29 -7 -38 -15 -18 -16 -50 -11
-50 9 1 15 81 71 98 68 6 -2 12 2 12 8 0 19 27 40 43 34 8 -3 18 0 22 6 4 6 9
9 12 6 3 -3 -10 -21 -30 -41z m-222 -45 c3 -5 -1 -10 -10 -10 -9 0 -13 5 -10
10 3 6 8 10 10 10 2 0 7 -4 10 -10z m-45 -30 c0 -5 -4 -10 -10 -10 -5 0 -10 5
-10 10 0 6 5 10 10 10 6 0 10 -4 10 -10z m90 -16 c0 -2 -7 -4 -15 -4 -8 0 -15
4 -15 10 0 5 7 7 15 4 8 -4 15 -8 15 -10z m130 -14 c0 -5 -5 -10 -11 -10 -5 0
-7 5 -4 10 3 6 8 10 11 10 2 0 4 -4 4 -10z m150 -70 c0 -5 -4 -10 -10 -10 -5
0 -10 5 -10 10 0 6 5 10 10 10 6 0 10 -4 10 -10z m-106 -39 c3 -5 -5 -11 -19
-13 -26 -5 -35 6 -12 15 19 8 25 8 31 -2z m-961 -1068 c-7 -2 -13 -11 -13 -18
0 -13 -29 -35 -45 -35 -4 0 -5 10 -3 23 2 12 9 21 16 20 6 -2 12 2 12 7 0 6
10 10 23 9 12 0 16 -3 10 -6z m-77 -50 c-10 -10 -19 5 -10 18 6 11 8 11 12 0
2 -7 1 -15 -2 -18z m-226 -83 c0 -5 -12 -17 -27 -27 -16 -10 -32 -24 -36 -31
-10 -15 -50 -32 -89 -37 -14 -2 -36 -9 -48 -15 -23 -12 -50 -7 -50 10 0 5 6
10 14 10 28 0 27 20 0 30 l-28 11 25 23 c27 26 43 24 36 -4 -7 -29 13 -30 72
-3 41 19 56 22 61 12 6 -9 12 -6 21 10 14 21 49 30 49 11z m223 -836 c3 -19 0
-27 -17 -34 -17 -6 -22 -3 -27 14 -6 23 6 46 26 46 7 0 15 -12 18 -26z m-1613
-74 c0 -13 -7 -20 -20 -20 -23 0 -25 5 -7 25 17 20 27 18 27 -5z m-350 -425
c0 -9 -6 -12 -15 -9 -20 8 -19 -6 3 -23 16 -12 15 -13 -8 -11 -31 4 -41 44
-13 51 31 8 33 7 33 -8z m-125 -100 c11 -50 68 -155 110 -205 12 -14 30 -38
40 -55 31 -52 108 -146 166 -204 30 -31 86 -92 124 -136 38 -44 77 -89 87 -99
10 -11 18 -28 18 -37 0 -10 5 -21 11 -24 17 -11 29 -54 20 -77 -5 -14 -10 -17
-15 -10 -4 7 -14 12 -22 12 -12 0 -12 -4 -4 -20 8 -15 7 -25 -3 -40 -12 -18
-15 -18 -35 -4 -17 12 -20 19 -12 39 8 22 7 25 -15 25 -13 0 -30 6 -37 13 -21
22 -49 17 -46 -7 2 -13 -6 -28 -22 -40 -15 -11 -18 -16 -7 -12 16 5 17 0 13
-42 -3 -26 -5 -54 -6 -62 0 -10 -8 -6 -25 13 -28 31 -41 33 -66 11 -16 -14
-16 -54 1 -54 4 0 11 -7 14 -16 3 -8 2 -12 -3 -9 -6 3 -14 -2 -19 -11 -14 -25
-35 -8 -22 17 11 20 -3 28 -15 8 -4 -6 -14 -8 -22 -5 -8 3 -28 -4 -46 -17 -18
-12 -33 -22 -35 -23 -1 0 4 -14 12 -30 8 -16 17 -44 21 -63 10 -46 -11 -32
-37 25 -10 24 -21 44 -24 44 -2 0 -20 -6 -39 -14 -29 -13 -34 -20 -40 -60 -4
-26 -11 -49 -16 -52 -5 -2 -6 -17 -3 -32 5 -23 1 -30 -21 -40 -14 -7 -24 -8
-21 -3 3 5 -3 11 -14 14 -11 3 -18 2 -15 -3 3 -4 -3 -11 -12 -14 -14 -6 -15
-9 -4 -15 11 -7 9 -11 -8 -20 -11 -7 -21 -9 -21 -6 0 3 -10 -3 -22 -15 -12
-11 -27 -20 -33 -20 -6 0 -19 -14 -29 -31 -24 -40 -52 -69 -69 -69 -20 0 -97
79 -97 100 0 5 -10 8 -22 6 -16 -2 -23 -10 -24 -27 -2 -45 -4 -50 -15 -44 -6
4 -13 -2 -16 -14 -3 -12 -9 -21 -13 -21 -14 0 -18 24 -7 50 46 119 47 120 27
120 -11 0 -25 -7 -32 -16 -7 -8 -21 -24 -30 -34 -9 -10 -14 -21 -11 -24 11
-10 -42 -45 -62 -40 -22 4 -62 -24 -66 -47 -3 -22 12 -49 27 -49 8 0 14 -4 14
-10 0 -5 7 -7 16 -3 8 3 13 12 10 19 -3 8 7 27 23 42 15 15 26 33 23 41 -3 8
1 12 9 9 8 -3 15 -15 15 -27 1 -13 8 -27 15 -32 14 -9 16 -6 -51 -74 -30 -30
-53 -32 -80 -5 -15 15 -20 16 -20 6 0 -19 -16 -28 -60 -36 -21 -3 -36 -12 -38
-22 -3 -14 2 -15 32 -8 31 7 36 5 36 -10 0 -10 -7 -23 -15 -30 -8 -7 -15 -29
-15 -49 0 -20 -4 -42 -9 -50 -9 -14 17 -71 32 -71 4 0 7 -8 8 -17 0 -14 2 -15
6 -3 15 39 53 39 53 0 0 -33 -8 -36 -73 -21 -48 12 -51 15 -37 40 10 19 8 21
-16 21 -21 0 -25 4 -21 20 3 11 1 20 -4 20 -6 0 -20 11 -33 25 -13 14 -28 25
-35 25 -18 0 -13 14 11 29 19 12 23 11 35 -5 14 -18 15 -18 34 5 30 37 25 54
-13 46 -37 -9 -63 -22 -90 -47 -10 -10 -23 -18 -29 -18 -6 0 -9 -7 -5 -15 6
-17 -40 -45 -73 -45 -11 0 -23 -4 -26 -10 -3 -5 2 -10 12 -10 11 0 24 -5 31
-12 7 -7 12 -9 12 -5 0 4 10 -1 22 -13 32 -29 57 -26 55 7 -3 39 39 48 71 15
l23 -25 -29 -31 c-16 -17 -33 -40 -37 -51 -5 -13 -9 -16 -12 -7 -4 10 -8 10
-19 1 -20 -17 -44 -3 -41 23 1 12 -3 23 -10 23 -7 0 -18 6 -24 13 -7 6 -19 12
-26 12 -7 0 -13 5 -13 10 0 16 -27 11 -34 -6 -3 -9 -6 -36 -6 -60 0 -38 5 -49
30 -71 35 -29 39 -58 10 -73 -11 -6 -20 -16 -20 -23 -1 -17 -36 -57 -51 -57
-29 0 -53 70 -29 85 14 9 12 34 -4 50 -17 17 -26 9 -26 -22 0 -13 -4 -23 -10
-23 -17 0 -50 -44 -50 -67 0 -21 3 -22 20 -13 11 6 25 8 30 5 15 -9 12 -48 -6
-73 -15 -22 -15 -25 2 -43 24 -27 9 -52 -34 -56 -30 -4 -32 -2 -32 26 0 41
-11 45 -44 14 l-28 -25 -14 21 c-24 34 -94 21 -94 -19 0 -6 -11 -16 -25 -22
-14 -6 -25 -15 -25 -20 0 -5 -11 -6 -25 -2 -30 7 -32 -6 -6 -31 20 -17 20 -18
-9 -42 -24 -19 -29 -30 -24 -49 5 -20 2 -26 -15 -31 -27 -7 -27 -23 1 -31 l22
-5 -22 -8 c-28 -11 -30 -43 -3 -34 15 5 19 1 18 -14 0 -11 -4 -19 -7 -19 -32
3 -40 -3 -28 -21 10 -16 9 -23 -5 -39 -9 -10 -17 -28 -17 -39 0 -27 -37 -38
-45 -13 -3 9 -14 25 -25 35 -11 10 -20 31 -20 46 0 57 -9 60 -52 18 -22 -21
-44 -37 -48 -34 -5 3 -11 -4 -15 -15 -5 -14 5 -32 39 -67 25 -26 46 -52 47
-58 5 -69 3 -84 -18 -118 -21 -33 -25 -36 -43 -25 -16 10 -23 9 -43 -10 -15
-14 -36 -22 -60 -22 -20 0 -39 -4 -42 -10 -3 -5 -14 -10 -24 -10 -10 0 -24 -7
-31 -15 -7 -8 -22 -14 -34 -13 -12 1 -36 -9 -53 -22 -26 -18 -31 -28 -27 -47
4 -14 2 -23 -5 -23 -6 0 -11 -7 -11 -15 0 -8 -4 -15 -10 -15 -5 0 -10 -7 -10
-15 0 -19 14 -19 30 0 7 8 16 12 21 9 16 -10 9 -24 -11 -24 -11 0 -20 -7 -20
-15 0 -8 -5 -15 -11 -15 -6 0 -8 -9 -4 -20 8 -24 7 -24 -39 -5 -27 12 -42 13
-56 5 -28 -15 -25 -25 15 -57 39 -31 46 -62 16 -70 -11 -3 -23 -12 -27 -21 -5
-12 -10 -2 -18 33 -8 32 -17 49 -25 47 -7 -1 -19 2 -26 8 -16 13 -28 -1 -19
-24 3 -8 -3 -25 -14 -37 -11 -11 -18 -27 -16 -34 3 -7 -2 -15 -11 -19 -9 -3
-18 0 -21 9 -8 19 -34 19 -61 0 -24 -17 -41 -91 -25 -107 8 -8 4 -16 -11 -28
-19 -16 -23 -16 -44 -2 -22 14 -23 16 -8 38 19 29 19 39 -1 58 -8 9 -11 16 -4
16 6 0 4 10 -6 25 -22 34 -10 63 37 83 21 9 39 20 39 25 0 4 -4 6 -9 2 -14 -8
-33 32 -36 79 -2 22 -4 42 -4 44 -1 1 -7 -3 -15 -10 -10 -9 -11 -20 -5 -37 5
-13 8 -25 7 -26 -11 -6 -85 -26 -93 -25 -6 1 -19 2 -29 1 -16 -1 -17 -4 -8
-13 21 -21 14 -63 -14 -87 -14 -12 -23 -28 -21 -36 7 -17 -28 -8 -44 11 -9 11
-8 14 5 14 9 0 16 5 16 10 0 6 -5 10 -11 10 -8 0 -8 4 1 15 7 9 9 26 5 45 -4
17 -2 30 3 30 5 0 18 16 27 37 26 53 79 103 105 98 15 -3 24 2 27 15 3 10 15
21 27 24 22 5 46 58 46 100 0 13 5 16 19 11 14 -4 25 1 37 20 13 20 23 25 40
21 18 -5 22 -3 18 8 -3 8 -12 17 -21 20 -12 5 -13 9 -3 21 9 10 9 15 1 15 -6
0 -11 4 -11 9 0 5 10 7 23 5 12 -2 16 -1 9 2 -20 9 15 44 44 44 40 0 38 24 -6
86 -18 25 -67 37 -74 18 -3 -8 -11 -14 -18 -14 -7 0 -19 -9 -25 -19 -10 -16
-9 -24 7 -44 22 -27 26 -52 10 -62 -5 -3 -10 3 -10 14 0 11 -5 23 -11 27 -16
10 -68 -57 -69 -88 0 -18 -5 -28 -15 -28 -10 0 -15 -10 -15 -33 0 -26 -9 -41
-41 -70 -39 -37 -59 -40 -59 -11 0 17 -30 19 -31 2 0 -10 -2 -10 -6 0 -2 6
-14 12 -25 12 -29 0 -16 -24 15 -28 31 -4 34 -18 11 -51 -12 -16 -19 -20 -27
-12 -17 17 -30 13 -24 -9 6 -23 -8 -27 -17 -5 -3 8 -11 15 -18 14 -10 0 -10
-2 0 -6 16 -6 15 -33 -3 -76 -16 -38 -48 -56 -69 -38 -7 6 -25 9 -42 8 -34 -2
-83 -58 -84 -94 0 -13 -3 -23 -8 -23 -11 0 -46 -69 -39 -77 10 -10 -13 -33
-34 -33 -10 0 -25 13 -34 30 -9 17 -20 30 -26 30 -5 0 -9 7 -7 16 2 9 -7 20
-20 25 -19 7 -26 4 -42 -24 -24 -38 -25 -53 -5 -61 8 -3 15 -12 15 -21 0 -11
-6 -14 -25 -9 -14 3 -25 2 -25 -2 1 -20 19 -36 44 -37 22 -2 26 -6 21 -22 -4
-11 -7 -28 -6 -37 0 -10 -7 -18 -15 -18 -8 0 -14 5 -14 10 0 6 -7 10 -15 10
-8 0 -15 -9 -15 -19 0 -19 -42 -37 -61 -26 -13 9 -29 -37 -17 -52 6 -7 6 -18
-1 -30 -7 -14 -5 -28 7 -52 12 -26 13 -41 6 -71 -8 -29 -8 -39 3 -46 17 -11 7
-44 -13 -44 -8 0 -17 8 -20 18 -3 9 -10 26 -15 37 -5 11 -8 34 -7 50 2 21 -1
30 -12 30 -8 0 -14 -8 -14 -18 1 -10 -11 -23 -32 -33 -29 -14 -33 -20 -27 -43
3 -14 10 -27 15 -29 4 -2 8 -11 8 -19 0 -13 -3 -13 -15 -3 -9 7 -25 10 -41 6
-23 -6 -26 -11 -22 -41 3 -29 1 -35 -14 -35 -14 0 -18 -8 -18 -34 0 -33 24
-57 33 -33 3 7 8 5 13 -7 5 -14 1 -24 -14 -37 -13 -10 -20 -24 -16 -32 3 -8 1
-18 -5 -22 -6 -3 -11 0 -11 7 -1 19 -70 52 -83 39 -7 -7 -1 -14 17 -21 23 -9
27 -15 22 -35 -4 -14 -2 -25 4 -25 5 0 10 -11 10 -24 0 -17 -7 -26 -25 -30
-45 -11 -61 20 -29 55 15 17 15 19 -10 30 -14 7 -26 16 -26 21 0 4 -7 8 -15 8
-9 0 -15 9 -15 23 0 12 -5 29 -10 37 -8 13 -11 13 -19 1 -5 -8 -16 -11 -25 -8
-11 5 -16 1 -16 -13 0 -11 -4 -28 -9 -38 -5 -9 -15 -30 -22 -45 -7 -16 -21
-33 -31 -38 -14 -7 -20 -3 -34 26 -9 19 -21 35 -26 35 -7 0 -7 4 -1 13 6 6 13
24 17 40 3 15 13 27 21 27 10 0 15 10 15 30 0 17 5 30 10 30 6 0 10 4 10 8 0
4 -16 8 -35 8 -27 0 -35 -4 -35 -18 0 -10 -6 -18 -14 -18 -8 0 -23 -19 -35
-42 l-21 -43 21 -17 c12 -10 16 -18 10 -18 -9 0 -9 -6 0 -22 8 -14 14 -18 17
-10 6 20 32 14 32 -8 0 -25 -10 -25 -55 1 -34 20 -73 20 -60 -1 3 -5 3 -15 -1
-22 -5 -8 -11 -6 -20 7 -20 27 -44 11 -44 -29 0 -19 -4 -38 -10 -41 -14 -9
-12 -50 4 -90 8 -18 12 -36 8 -39 -8 -8 -13 -46 -7 -46 3 0 14 5 25 12 10 7
22 10 25 7 9 -10 -6 -39 -21 -39 -8 0 -24 -10 -36 -22 -12 -12 -34 -22 -47
-23 -18 0 -27 -6 -29 -20 -8 -40 -20 -36 -15 4 l6 41 -39 0 c-37 -1 -38 -2
-19 -15 18 -15 18 -17 3 -43 -10 -16 -18 -45 -20 -65 -1 -19 -5 -34 -9 -31 -4
2 -10 0 -14 -6 -9 -15 -25 -12 -25 4 0 8 -7 16 -15 20 -13 5 -14 2 -4 -15 17
-32 3 -63 -36 -82 -20 -9 -33 -22 -30 -28 4 -5 0 -20 -8 -33 -14 -21 -43 -26
-97 -16 -3 0 3 7 13 14 16 12 16 14 1 20 -10 4 -18 0 -21 -13 -3 -12 -11 -17
-19 -14 -8 3 -21 0 -28 -6 -10 -8 -16 -9 -21 -1 -13 21 -24 9 -19 -20 6 -26 4
-30 -15 -30 -11 0 -21 -6 -21 -14 0 -8 -13 -25 -28 -38 -37 -31 -47 -64 -20
-71 13 -4 17 -10 12 -18 -6 -10 -9 -10 -12 -1 -2 7 -13 12 -24 12 -14 0 -18
-5 -14 -15 4 -10 -1 -15 -16 -15 -16 0 -18 -3 -9 -13 8 -11 5 -16 -14 -25 -30
-14 -34 -37 -5 -29 27 7 26 -17 -1 -36 -20 -14 -20 -16 -2 -27 15 -9 12 -10
-19 -5 -21 3 -39 1 -43 -5 -3 -6 -11 -7 -17 -4 -6 4 -13 2 -17 -4 -3 -6 -18
-13 -31 -15 -14 -2 -33 -7 -43 -12 -11 -4 -23 -3 -30 4 -17 17 -27 13 -27 -11
0 -17 -3 -19 -9 -9 -7 11 -10 9 -16 -8 -3 -11 -10 -21 -15 -21 -5 0 -12 -9
-15 -20 -3 -11 -15 -20 -26 -20 -11 0 -19 -7 -19 -18 0 -16 -31 -43 -47 -41
-3 0 -17 -22 -30 -50 -14 -28 -28 -49 -33 -46 -4 3 -7 -3 -6 -12 1 -17 -3 -19
-39 -22 -8 0 -15 -8 -15 -16 0 -8 -6 -15 -13 -15 -18 0 -67 42 -67 58 0 7 -4
12 -10 12 -5 0 -10 9 -10 19 0 17 12 32 78 95 34 32 43 40 79 79 20 20 42 37
49 37 8 0 11 6 8 13 -9 25 20 48 64 50 23 0 42 5 42 9 0 4 -5 8 -11 8 -21 0 3
21 42 37 21 8 39 21 39 28 0 7 14 18 30 25 18 8 30 20 30 31 0 11 5 19 10 19
6 0 10 6 10 14 0 29 34 73 64 82 18 5 32 17 34 27 4 22 37 57 53 57 5 0 9 8 8
18 -1 9 -1 30 0 46 1 29 1 29 47 10 6 -3 15 10 20 28 8 25 15 32 30 30 22 -3
70 53 54 63 -18 11 -11 23 10 18 12 -3 29 2 39 11 10 9 21 13 25 9 4 -5 6 -2
4 6 -4 16 45 49 98 66 8 3 13 9 10 14 -3 5 1 14 9 21 8 7 15 18 15 24 0 6 12
22 25 35 24 22 30 18 26 -16 -3 -18 24 -16 39 2 9 11 16 13 24 5 18 -18 54
-11 62 13 4 12 12 25 18 29 6 5 -4 5 -21 2 -41 -8 -63 9 -63 48 0 22 14 43 60
88 58 59 84 72 93 48 4 -8 6 -7 6 4 1 9 -4 18 -11 20 -6 2 4 14 24 26 24 15
38 32 42 53 3 17 10 28 15 24 5 -3 13 1 18 8 4 8 18 19 31 26 12 6 22 16 22
22 0 13 46 56 93 86 21 13 35 28 31 34 -3 6 4 13 16 16 11 3 19 11 16 18 -2 7
3 12 11 11 9 0 17 9 20 23 4 30 2 28 36 36 22 6 27 4 27 -11 -1 -23 -27 -59
-43 -59 -7 0 -19 -15 -27 -32 -9 -19 -23 -33 -33 -33 -11 0 -21 -9 -24 -20 -3
-11 -9 -20 -13 -20 -5 0 -6 -9 -3 -20 6 -22 6 -22 27 -14 9 3 16 17 16 30 0
21 3 24 25 18 21 -5 34 2 76 45 27 28 47 51 44 51 -4 0 3 13 14 29 12 16 21
34 21 40 0 14 -27 14 -35 1 -22 -36 -35 23 -13 63 6 12 14 36 17 52 5 21 16
34 39 44 17 8 32 22 32 30 0 17 40 54 99 93 22 15 40 38 50 66 8 23 22 42 29
42 8 0 25 11 38 25 13 14 32 25 44 25 13 0 24 10 31 27 11 29 55 74 63 65 3
-3 6 2 6 11 0 12 8 17 26 17 14 0 23 4 20 9 -9 14 64 91 86 91 10 0 18 -4 18
-10 0 -12 27 -13 34 -2 3 5 -2 21 -10 37 -19 37 -10 65 22 65 17 0 24 5 24 20
0 11 11 30 25 42 14 12 25 26 25 32 0 6 14 20 30 31 17 11 33 30 36 43 5 17
13 22 40 22 23 0 34 5 34 14 0 8 17 35 38 60 95 116 132 166 142 190 5 14 16
26 25 26 8 0 15 9 15 21 0 11 5 17 10 14 6 -3 13 1 16 9 3 8 15 18 27 22 22 7
47 28 49 41 2 10 16 27 51 65 15 16 27 34 27 39 0 11 24 34 70 69 42 31 116
105 155 153 16 20 36 37 42 37 7 0 13 7 13 15 0 8 7 15 16 15 11 0 15 6 11 19
-2 10 1 18 7 18 33 -1 44 5 55 30 9 20 15 23 20 14 13 -20 24 5 12 26 -7 13
-4 22 11 35 12 10 25 18 30 18 4 0 8 9 8 19 0 20 18 31 52 31 13 0 18 5 15 14
-7 16 39 66 59 66 8 0 14 7 14 15 0 19 60 80 88 89 12 4 22 12 22 17 0 5 6 9
14 9 8 0 16 10 18 22 2 12 12 25 23 28 11 3 20 11 21 18 1 6 2 18 3 26 0 8 16
29 34 47 17 18 32 37 32 42 0 17 67 49 115 56 30 4 45 11 45 21 1 28 17 42 42
37 27 -5 48 23 40 54 -5 18 3 23 31 20 6 -1 12 3 12 10 0 6 8 9 19 6 14 -3 21
2 25 19 4 14 18 29 32 34 21 8 25 16 22 40 -2 24 2 33 22 43 14 7 25 21 25 32
0 19 31 58 48 61 4 1 12 2 17 3 6 0 10 17 10 36 0 19 5 35 11 35 18 0 39 28
33 44 -5 13 3 14 51 10 41 -4 55 -3 51 5 -4 6 -2 11 3 11 6 0 11 -5 11 -12 0
-27 18 10 25 50 5 34 4 42 -9 42 -10 0 -13 6 -10 15 4 8 12 15 20 15 8 0 11
-6 8 -15 -4 -9 1 -18 10 -21 25 -10 31 3 15 32 -12 23 -12 27 6 40 11 8 30 12
41 10 28 -7 44 12 40 47 -3 25 -1 27 35 27 40 0 97 39 71 48 -7 2 -12 8 -12
14 0 6 7 5 16 -3 14 -11 19 -9 35 11 22 30 26 65 5 57 -11 -4 -14 2 -14 24 1
18 6 29 16 29 10 0 13 -7 9 -21 -4 -15 -2 -19 10 -15 8 3 23 6 34 6 12 0 19 7
19 20 0 16 -7 20 -32 20 l-31 0 23 25 c26 28 50 33 50 10 0 -19 7 -19 26 -1
17 18 18 33 3 38 -7 2 1 19 20 40 17 20 31 41 31 47 0 6 5 11 11 11 6 0 9 7 5
15 -3 8 -2 14 2 12 16 -5 53 33 56 58 2 15 7 30 12 33 5 4 26 30 47 58 48 67
71 82 115 75 33 -6 36 -10 47 -56z m-768 -735 c0 -23 -4 -29 -15 -25 -8 3 -20
1 -27 -5 -9 -8 -12 -5 -10 12 3 32 3 32 20 18 13 -10 15 -9 15 9 0 11 4 21 8
21 5 0 9 -14 9 -30z m1373 -120 c0 -5 -2 -10 -4 -10 -3 0 -8 5 -11 10 -3 6 -1
10 4 10 6 0 11 -4 11 -10z m63 -58 c-1 -35 1 -40 18 -39 10 1 19 6 19 11 0 12
30 46 42 46 14 0 9 -34 -8 -58 -9 -13 -22 -21 -30 -18 -7 3 -18 -2 -23 -12 -9
-15 -11 -15 -30 2 -19 18 -23 52 -12 114 1 2 7 2 14 -1 7 -2 11 -20 10 -45z
m-443 -178 c0 -8 -4 -14 -10 -14 -5 0 -10 9 -10 21 0 11 5 17 10 14 6 -3 10
-13 10 -21z m-1370 -49 c0 -8 -2 -15 -4 -15 -2 0 -6 7 -10 15 -3 8 -1 15 4 15
6 0 10 -7 10 -15z m1646 -51 c-3 -9 -6 -20 -6 -25 0 -5 -7 -9 -16 -9 -8 0 -12
5 -9 10 3 6 1 10 -4 10 -18 0 -12 18 7 23 31 8 34 7 28 -9z m-421 -74 c-3 -5
-11 -10 -16 -10 -6 0 -7 5 -4 10 3 6 11 10 16 10 6 0 7 -4 4 -10z m370 -129
c-3 -6 -11 -11 -17 -11 -6 0 -6 6 2 15 14 17 26 13 15 -4z m-532 -45 c3 -8 3
-16 0 -19 -9 -10 -33 5 -33 19 0 18 26 18 33 0z m-236 -54 c-3 -4 3 -24 13
-44 28 -57 33 -88 15 -88 -10 0 -15 10 -15 30 0 17 -4 30 -8 30 -4 0 -16 14
-26 31 -15 26 -16 33 -5 40 17 11 32 12 26 1z m652 -41 c11 -7 10 -11 -5 -19
-10 -6 -16 -13 -12 -17 11 -11 -25 -45 -49 -45 -36 0 -31 38 7 51 17 6 30 17
30 25 0 16 9 18 29 5z m-509 -38 c0 -5 -4 -14 -9 -22 -8 -12 -12 -13 -26 -1
-13 11 -18 10 -30 -6 -11 -16 -16 -17 -27 -6 -11 11 -10 16 6 28 20 14 86 20
86 7z m378 -180 c-4 -43 -23 -55 -32 -19 -8 31 2 56 21 56 10 0 13 -10 11 -37z
m-913 -230 c3 -21 8 -50 10 -65 3 -16 0 -28 -5 -28 -6 0 -10 -20 -10 -45 0
-44 -12 -60 -24 -30 -14 38 -59 0 -53 -47 2 -21 -2 -23 -46 -23 -51 0 -58 7
-57 61 0 16 -3 46 -6 68 l-7 39 36 -7 c33 -6 37 -4 43 18 3 14 3 30 -2 37 -7
13 22 9 60 -6 17 -7 18 -5 12 19 -8 33 -1 46 24 46 14 0 21 -9 25 -37z m-160
-283 c-3 -5 -16 -10 -28 -10 -18 0 -19 2 -7 10 20 13 43 13 35 0z m-53 -65
c-5 -16 -17 -33 -28 -39 -10 -6 -23 -17 -27 -23 -10 -16 -43 -17 -53 -2 -8 13
16 31 33 24 6 -2 13 6 15 17 2 17 56 61 65 54 1 -1 -1 -15 -5 -31z m-444 -34
c20 -12 21 -76 2 -76 -10 0 -17 14 -21 43 -6 43 -3 48 19 33z m-33 -111 c3 -5
-1 -10 -9 -10 -9 0 -16 5 -16 10 0 6 4 10 9 10 6 0 13 -4 16 -10z m-915 -210
c8 -5 11 -12 8 -16 -10 -9 -38 3 -38 16 0 12 10 13 30 0z m730 -47 c0 -27 -15
-30 -29 -5 -6 10 -11 12 -11 4 0 -7 -4 -11 -10 -7 -10 6 -4 31 14 53 8 11 12
11 23 -4 7 -10 13 -28 13 -41z m61 -29 c-9 -39 -9 -39 -10 -6 -1 17 -6 32 -13
32 -6 0 -3 6 8 14 24 18 27 10 15 -40z m98 42 c15 -18 4 -66 -15 -66 -19 0
-28 24 -20 55 7 28 18 32 35 11z m-339 -220 c0 -3 -4 -8 -10 -11 -5 -3 -10 -1
-10 4 0 6 5 11 10 11 6 0 10 -2 10 -4z m328 -33 c2 -16 -2 -23 -13 -23 -9 0
-19 -9 -22 -20 -8 -30 -33 -24 -39 10 -7 33 -14 36 -32 18 -7 -7 -12 -9 -12
-4 0 13 25 34 46 38 45 10 69 3 72 -19z m-436 -31 c-20 -2 -32 -10 -35 -23 -5
-17 -9 -19 -26 -9 -31 16 -26 28 19 41 22 7 40 17 40 23 0 6 7 2 16 -9 14 -19
13 -20 -14 -23z m-562 -12 c0 -5 -2 -10 -4 -10 -3 0 -8 5 -11 10 -3 6 -1 10 4
10 6 0 11 -4 11 -10z m785 -120 c21 -24 20 -25 -22 -35 -36 -7 -41 2 -21 35
16 25 20 25 43 0z m-778 -92 c-3 -8 -6 -5 -6 6 -1 11 2 17 5 13 3 -3 4 -12 1
-19z m-250 -94 c-3 -3 -12 -4 -19 -1 -8 3 -5 6 6 6 11 1 17 -2 13 -5z m137
-30 c8 -20 8 -24 -1 -24 -17 0 -35 19 -29 29 10 16 23 14 30 -5z m-237 -21
c-16 -4 -15 -6 5 -23 19 -15 20 -20 9 -34 -7 -9 -21 -16 -30 -16 -9 0 -22 -5
-29 -12 -11 -11 -12 18 -3 85 1 4 16 6 34 6 17 -1 24 -3 14 -6z m-277 -33 c0
-11 -4 -20 -10 -20 -5 0 -10 9 -10 20 0 11 5 20 10 20 6 0 10 -9 10 -20z m474
-5 c3 -8 1 -15 -4 -15 -6 0 -10 7 -10 15 0 8 2 15 4 15 2 0 6 -7 10 -15z m121
-5 c-3 -5 -10 -10 -16 -10 -5 0 -9 5 -9 10 0 6 7 10 16 10 8 0 12 -4 9 -10z
m-55 -70 c0 -21 -40 -54 -50 -44 -14 14 -3 42 18 47 29 8 32 7 32 -3z m-410
-47 c0 -5 -5 -15 -10 -23 -8 -12 -10 -11 -10 8 0 12 5 22 10 22 6 0 10 -3 10
-7z m30 -3 c0 -5 -4 -10 -10 -10 -5 0 -10 5 -10 10 0 6 5 10 10 10 6 0 10 -4
10 -10z m350 -40 c0 -4 -7 -10 -15 -14 -8 -3 -15 -12 -15 -21 0 -8 -7 -15 -15
-15 -8 0 -12 -6 -9 -13 3 -9 -7 -17 -28 -24 -18 -5 -32 -15 -30 -21 1 -7 -2
-12 -7 -12 -5 0 -8 -12 -7 -27 3 -24 9 -29 40 -34 23 -4 36 -2 36 5 0 6 9 17
20 24 28 17 63 -4 55 -34 -3 -16 1 -23 15 -27 12 -3 20 -14 20 -26 0 -22 -14
-28 -25 -12 -5 9 -63 -15 -75 -31 -3 -3 -24 -6 -48 -5 -29 2 -42 6 -42 17 0
11 -3 11 -12 2 -7 -7 -21 -12 -32 -12 -33 -1 -56 -24 -56 -57 0 -16 -6 -35
-12 -42 -10 -11 -10 -14 0 -18 28 -11 2 -60 -37 -68 -31 -6 -48 -21 -67 -60
-13 -27 -19 -31 -42 -27 -26 5 -84 40 -90 55 -6 11 -39 8 -50 -5 -6 -7 -12
-26 -14 -43 -2 -22 -8 -30 -22 -28 -10 0 -34 -7 -52 -18 l-34 -19 0 30 c0 16
-5 41 -10 56 -14 37 -5 63 20 57 15 -4 20 0 20 16 0 30 37 27 72 -6 27 -26 28
-26 28 -5 0 12 -16 39 -35 61 -38 41 -48 91 -19 91 9 0 18 -9 21 -19 7 -26 63
-34 80 -12 7 9 13 22 13 29 0 8 9 25 20 39 11 14 20 32 20 39 0 20 31 32 66
27 41 -6 72 11 80 45 4 15 16 38 26 51 16 21 26 25 63 22 68 -4 105 21 105 71
0 15 7 34 16 42 14 14 17 14 40 0 13 -9 24 -20 24 -24z m460 30 c0 -5 -4 -10
-10 -10 -5 0 -10 5 -10 10 0 6 5 10 10 10 6 0 10 -4 10 -10z m-1054 -75 c6
-15 -17 -45 -35 -45 -15 0 -14 16 1 40 15 24 27 25 34 5z m950 -10 c16 -12 17
-16 4 -24 -9 -6 -19 -6 -26 0 -8 7 -14 7 -18 0 -4 -5 -2 -12 4 -16 6 -4 7 -11
4 -17 -12 -19 -25 32 -14 53 13 23 20 24 46 4z m84 -10 c0 -9 -6 -12 -15 -9
-8 4 -12 10 -9 15 8 14 24 10 24 -6z m-950 -59 c0 -3 -4 -8 -10 -11 -5 -3 -10
-1 -10 4 0 6 5 11 10 11 6 0 10 -2 10 -4z m568 -27 c-2 -6 -8 -10 -13 -10 -5
0 -11 4 -13 10 -2 6 4 11 13 11 9 0 15 -5 13 -11z m-760 -181 c-6 -18 -28 -21
-28 -4 0 9 7 16 16 16 9 0 14 -5 12 -12z m-10 -81 c2 -19 -1 -27 -12 -27 -11
0 -16 10 -16 31 0 38 24 35 28 -4z m32 -37 c0 -5 -5 -10 -11 -10 -5 0 -7 5 -4
10 3 6 8 10 11 10 2 0 4 -4 4 -10z m-552 -168 c2 -12 -3 -29 -11 -37 -9 -8
-13 -24 -10 -35 4 -13 -2 -26 -18 -39 l-23 -18 22 -7 c12 -4 22 -12 22 -17 0
-12 0 -12 -48 5 -26 9 -44 11 -47 5 -11 -17 -22 0 -17 26 2 14 11 25 18 25 9
0 14 11 14 31 0 22 5 32 20 36 10 3 26 16 35 30 19 28 39 26 43 -5z m42 19 c0
-6 -4 -13 -10 -16 -5 -3 -10 1 -10 9 0 9 5 16 10 16 6 0 10 -4 10 -9z m186
-15 c7 -8 19 -16 26 -18 10 -4 10 -11 -2 -34 -20 -40 -50 -64 -82 -64 -18 0
-28 -5 -28 -15 0 -8 -4 -15 -10 -15 -5 0 -10 -10 -10 -22 0 -39 -12 -68 -27
-68 -27 0 9 122 39 133 10 3 10 9 2 23 -10 16 -6 25 25 56 40 42 46 44 67 24z
m334 -16 c0 -10 -4 -22 -10 -25 -6 -4 -10 7 -10 25 0 18 4 29 10 25 6 -3 10
-15 10 -25z m-167 -112 c21 3 27 -1 27 -16 0 -11 -7 -25 -15 -32 -8 -7 -13
-16 -10 -20 3 -4 -4 -19 -15 -33 -11 -14 -20 -34 -20 -45 0 -31 -26 -34 -45
-6 -15 23 -13 64 3 64 4 0 7 25 8 54 0 32 7 62 15 72 13 16 14 15 19 -12 5
-25 9 -29 33 -26z m-407 -62 c12 -12 12 -20 -1 -56 -19 -53 -19 -55 0 -40 12
10 15 9 15 -4 0 -28 -66 -89 -90 -83 -28 7 -35 -9 -7 -18 20 -6 20 -7 -10 -16
-18 -5 -33 -16 -33 -24 0 -23 -22 -29 -37 -10 -7 11 -13 15 -13 11 0 -5 -7 -3
-15 4 -20 16 -8 68 22 100 14 13 20 26 15 28 -11 3 -3 52 8 52 4 0 10 -8 12
-18 10 -38 68 -18 68 23 0 14 7 25 20 28 11 3 20 12 20 21 0 20 7 20 26 2z
m-196 -295 c15 -28 13 -34 -10 -28 -21 5 -34 -20 -30 -59 4 -36 0 -44 -30 -59
-29 -15 -30 -17 -15 -38 8 -12 15 -34 15 -49 0 -15 5 -30 11 -34 6 -3 9 -17 6
-30 -2 -13 0 -25 6 -27 6 -2 7 -14 4 -28 -8 -30 -42 -33 -62 -6 -7 9 -16 17
-22 17 -10 0 -33 57 -33 82 0 9 9 18 20 21 29 7 25 21 -11 34 -24 9 -29 16
-24 32 3 10 1 22 -5 26 -13 8 -13 42 0 50 6 4 22 0 35 -9 28 -19 45 -20 45 -5
0 6 -7 9 -15 5 -9 -3 -15 0 -15 10 0 8 6 14 13 12 25 -5 65 33 71 67 8 39 29
46 46 16z m-350 -113 c0 -5 -4 -8 -10 -8 -5 0 -10 10 -10 23 0 18 2 19 10 7 5
-8 10 -18 10 -22z m67 -120 c10 -17 10 -40 -1 -55 -5 -9 -4 -13 4 -13 9 0 8
-5 -3 -18 -26 -29 -20 -46 23 -64 28 -13 38 -22 34 -33 -4 -8 -1 -15 5 -15 6
0 11 7 11 15 0 8 5 15 10 15 6 0 10 -4 10 -9 0 -6 -4 -13 -10 -16 -5 -3 -10
-22 -10 -41 0 -20 -5 -34 -12 -34 -7 0 -5 -5 4 -11 12 -7 25 -6 40 2 12 7 31
12 43 13 14 1 20 8 20 26 0 18 6 25 20 25 15 0 24 -12 35 -45 14 -41 14 -46
-1 -54 -12 -6 -23 -2 -38 13 -21 21 -48 20 -36 0 4 -5 -32 -7 -91 -4 -116 6
-144 0 -145 -29 0 -15 -2 -16 -6 -6 -4 8 -13 20 -21 26 -12 9 -12 12 2 23 20
17 21 31 1 31 -9 0 -18 7 -21 15 -9 21 -24 19 -24 -4 0 -14 -5 -18 -20 -14
-15 4 -19 2 -15 -10 7 -16 -16 -29 -32 -19 -16 11 -23 41 -11 48 7 4 6 9 -3
15 -11 6 -9 12 5 28 15 16 22 18 39 10 15 -8 22 -8 28 2 5 8 9 9 9 3 0 -6 16
-10 38 -9 30 1 37 5 35 21 -1 10 -3 28 -4 39 -4 46 14 106 39 125 29 23 38 25
49 8z m343 -110 c0 -16 -4 -28 -10 -28 -5 0 -10 7 -10 15 0 9 -6 18 -14 21 -8
3 -11 14 -9 29 5 22 6 22 24 7 10 -9 19 -29 19 -44z m40 47 c0 -8 -7 -15 -15
-15 -16 0 -20 12 -8 23 11 12 23 8 23 -8z m-702 -160 c-3 -3 -9 2 -12 12 -6
14 -5 15 5 6 7 -7 10 -15 7 -18z m-8 -93 c0 -26 -25 -5 -28 24 -2 28 -2 28 13
10 8 -11 15 -26 15 -34z m-100 -151 c0 -4 -10 -7 -23 -7 -16 -1 -27 8 -38 32
-9 18 -14 36 -11 39 6 5 72 -54 72 -64z m414 43 c24 -23 19 -38 -16 -54 -18
-7 -37 -16 -43 -18 -5 -3 -2 4 8 15 9 11 17 32 17 46 0 31 11 34 34 11z m-514
-34 c27 0 63 -49 51 -68 -3 -5 -33 -11 -66 -13 -33 -2 -65 -7 -71 -11 -7 -5
-16 -8 -20 -7 -33 6 -45 -2 -42 -28 2 -20 9 -29 26 -31 12 -2 22 -10 22 -17 0
-8 -6 -12 -13 -9 -29 11 -48 -30 -44 -95 3 -52 1 -64 -14 -72 -10 -5 -24 -8
-31 -7 -7 2 -13 -4 -13 -12 0 -8 6 -14 13 -12 6 1 12 -2 12 -8 0 -5 -9 -10
-20 -10 -11 0 -20 -6 -20 -14 0 -29 21 -27 51 5 32 35 33 35 43 2 6 -19 2 -23
-26 -31 -26 -6 -34 -14 -36 -36 -2 -15 0 -35 4 -44 12 -30 11 -54 -3 -59 -20
-8 -30 6 -13 17 11 7 6 10 -17 10 -37 0 -39 -12 -11 -68 13 -26 15 -39 6 -65
-15 -47 -32 -61 -62 -53 -23 6 -38 36 -18 36 5 0 7 14 4 30 -4 31 -17 40 -24
18 -6 -16 -100 -11 -110 5 -6 9 -8 8 -8 -1 0 -8 9 -16 20 -19 24 -6 25 -16 5
-33 -8 -7 -12 -17 -8 -23 3 -5 1 -7 -4 -4 -15 10 -36 -19 -37 -51 -1 -25 -4
-27 -37 -24 -42 4 -47 -1 -51 -50 -2 -30 -5 -34 -26 -32 -17 2 -26 -3 -29 -17
-3 -10 -13 -19 -22 -19 -9 0 -22 -12 -28 -27 -7 -16 -25 -34 -40 -41 -25 -11
-30 -10 -46 9 -20 25 -8 49 24 49 11 0 19 7 19 15 0 8 7 15 15 15 8 0 15 4 15
9 0 5 10 13 21 16 18 6 20 12 15 46 -4 26 -2 39 5 39 6 0 9 -7 5 -15 -8 -23
27 -19 44 5 8 11 20 20 27 20 24 0 66 49 60 70 -3 11 6 41 19 68 13 26 24 54
24 63 0 9 7 20 16 23 8 3 12 2 9 -4 -3 -6 3 -10 14 -10 15 0 21 6 21 21 0 13
10 23 29 30 30 11 41 32 41 87 0 25 -4 32 -20 32 -15 0 -20 -7 -20 -25 0 -18
-7 -26 -25 -31 -14 -4 -28 -4 -31 -1 -4 3 -17 1 -31 -4 -19 -7 -30 -5 -49 10
-23 18 -24 20 -7 37 10 10 19 21 19 26 1 4 2 13 3 18 0 6 7 10 14 10 13 0 67
73 67 91 0 5 14 9 32 9 29 0 78 32 78 51 0 19 48 59 64 53 9 -3 16 -2 16 4 0
5 18 28 39 50 22 22 41 48 43 59 4 23 66 55 93 48 11 -2 31 -5 45 -5z m440
-44 c0 -16 -21 -36 -37 -36 -7 0 -10 7 -8 15 3 8 7 22 10 30 5 17 35 9 35 -9z
m-820 -15 c0 -21 6 -32 20 -36 11 -3 20 -15 20 -26 0 -20 -16 -27 -22 -9 -2 6
-13 12 -26 15 -16 3 -22 -1 -22 -15 0 -10 6 -20 13 -23 6 -2 -18 -10 -56 -17
-59 -12 -69 -18 -83 -44 -9 -17 -18 -42 -20 -55 -7 -33 -12 -41 -31 -41 -9 0
-13 -6 -9 -15 3 -8 0 -15 -6 -15 -6 0 -26 -16 -44 -36 -33 -35 -34 -35 -42
-13 -7 19 -10 20 -15 6 -4 -10 -17 -17 -32 -17 -27 0 -32 -9 -13 -28 9 -9 9
-15 0 -24 -7 -7 -12 -18 -12 -25 0 -7 -15 -36 -32 -65 -18 -29 -33 -60 -33
-68 0 -9 -7 -14 -18 -12 -9 2 -24 -4 -33 -13 -9 -8 -21 -12 -27 -8 -7 4 -5 -1
3 -11 13 -16 12 -20 -5 -32 -11 -7 -25 -18 -32 -24 -19 -16 -83 -13 -83 5 0
22 -21 18 -27 -6 -3 -12 -11 -18 -19 -15 -8 3 -14 1 -14 -4 0 -6 -13 -10 -30
-10 -16 0 -30 4 -30 9 0 9 48 26 63 23 4 -1 7 5 7 13 0 9 -6 12 -15 9 -8 -4
-15 -1 -15 5 0 6 5 11 10 11 6 0 10 7 10 16 0 8 4 12 10 9 16 -10 50 14 50 36
0 11 11 31 25 45 14 14 23 29 20 34 -3 5 5 14 17 21 13 7 48 36 78 66 30 29
60 53 66 53 7 0 15 8 19 18 7 16 8 15 15 -3 8 -19 9 -19 9 2 1 24 55 83 76 83
18 0 47 30 42 44 -2 6 6 15 17 21 11 6 22 19 24 30 6 28 21 45 42 45 19 0 30
19 30 51 0 13 7 19 22 19 12 0 29 6 37 14 13 12 66 32 94 35 4 1 7 -12 7 -28z
m50 -21 c0 -5 -2 -10 -4 -10 -3 0 -8 5 -11 10 -3 6 -1 10 4 10 6 0 11 -4 11
-10z m370 -184 c0 -2 -9 -6 -20 -9 -11 -3 -18 -1 -14 4 5 9 34 13 34 5z m-661
-276 c7 0 9 -4 6 -10 -3 -5 -1 -10 4 -10 6 0 11 -12 11 -26 0 -19 -4 -25 -15
-20 -8 3 -15 1 -15 -4 0 -6 -7 -10 -16 -10 -9 0 -28 -9 -44 -20 -15 -11 -30
-16 -34 -13 -3 4 -12 -2 -20 -12 -8 -11 -15 -14 -20 -7 -9 15 4 42 20 42 7 0
18 9 24 21 6 11 19 19 29 17 37 -6 69 46 36 58 -8 4 -12 11 -8 17 4 6 11 4 18
-6 7 -10 18 -17 24 -17z m521 15 c7 -8 21 -15 31 -15 11 0 19 -7 19 -16 0 -10
-6 -14 -15 -10 -9 3 -15 0 -15 -9 0 -8 3 -14 8 -14 17 3 32 -2 32 -10 0 -14
-62 -19 -92 -9 -32 11 -33 16 -14 63 16 38 27 43 46 20z m-850 -215 c0 -5 -5
-10 -11 -10 -5 0 -7 5 -4 10 3 6 8 10 11 10 2 0 4 -4 4 -10z m38 -45 c-3 -3
-9 2 -12 12 -6 14 -5 15 5 6 7 -7 10 -15 7 -18z m239 3 c-3 -8 -6 -5 -6 6 -1
11 2 17 5 13 3 -3 4 -12 1 -19z m-542 -82 c-16 -24 -16 -26 -1 -26 9 0 16 -4
16 -10 0 -19 -29 -10 -35 11 -8 25 14 74 28 60 5 -5 2 -19 -8 -35z m101 -33
c-10 -10 -19 5 -10 18 6 11 8 11 12 0 2 -7 1 -15 -2 -18z m630 -30 c-10 -25
-26 -2 -19 26 5 20 7 21 15 7 5 -10 7 -24 4 -33z m-599 -45 c-9 -5 -17 -16
-17 -24 0 -8 -13 -23 -30 -32 -16 -9 -32 -27 -35 -39 -3 -13 -16 -25 -30 -29
-14 -3 -25 -11 -25 -16 0 -6 -7 -5 -16 3 -26 22 3 96 34 84 10 -4 13 0 9 15
-5 19 8 26 37 21 5 -1 6 5 3 13 -4 9 -2 18 4 22 6 3 13 -3 16 -15 3 -12 9 -21
14 -21 13 0 11 48 -2 56 -7 4 -2 11 13 18 21 11 24 10 32 -17 8 -23 6 -31 -7
-39z m588 -39 c-12 -63 -33 -76 -46 -28 -4 17 0 29 15 41 25 20 36 15 31 -13z
m-274 -16 c7 -18 5 -28 -6 -39 -8 -9 -15 -19 -15 -24 0 -15 -51 -61 -63 -57
-7 2 -19 16 -27 31 -14 25 -13 28 3 40 9 7 17 18 17 25 0 6 5 11 10 11 6 0 10
10 10 23 0 21 4 23 31 19 21 -3 33 -12 40 -29z m-496 -92 c-18 -18 -41 -1 -32
24 6 13 10 13 27 3 17 -11 18 -14 5 -27z m346 -16 c29 9 41 -25 19 -53 l-19
-23 -38 33 c-58 50 -63 55 -56 62 3 3 17 3 29 0 16 -4 24 -2 25 7 0 8 5 4 11
-9 8 -15 17 -21 29 -17z m-392 -44 c11 -7 9 -10 -8 -16 -11 -3 -21 -13 -21
-21 0 -11 -6 -13 -19 -9 -23 7 -29 -1 -35 -48 -6 -46 -13 -57 -36 -57 -12 0
-20 -8 -22 -22 -2 -13 -9 -22 -17 -20 -8 2 -28 -11 -46 -28 -17 -17 -34 -28
-37 -25 -3 4 -9 2 -13 -4 -3 -6 1 -11 11 -11 14 0 13 -4 -6 -20 -13 -12 -29
-19 -35 -16 -7 2 -11 -4 -9 -17 5 -28 -26 -89 -46 -93 -8 -2 -26 -6 -40 -10
-22 -5 -27 -1 -39 31 -14 38 -7 60 10 35 9 -12 10 -12 5 3 -3 10 0 17 7 18 8
0 8 2 -1 6 -10 4 -8 9 7 20 12 8 21 21 21 29 0 11 6 13 20 9 11 -4 20 -2 20 4
0 6 6 11 13 11 8 0 19 11 25 25 6 14 19 25 28 25 13 0 14 -3 4 -15 -9 -11 -9
-15 -1 -15 6 0 16 12 21 26 6 14 14 23 18 20 10 -6 52 38 52 54 0 6 -5 9 -11
8 -23 -6 -18 18 9 48 15 17 26 36 24 42 -5 17 47 39 57 24 9 -15 49 -11 55 5
6 15 16 16 35 4z m325 -52 c-8 -14 -24 -10 -24 6 0 9 6 12 15 9 8 -4 12 -10 9
-15z m-100 -17 c2 -4 1 -14 -4 -22 -7 -11 -11 -11 -24 -1 -9 7 -13 17 -10 22
7 11 31 12 38 1z m-148 -177 c14 -29 7 -42 -26 -46 -21 -3 -24 -9 -22 -32 3
-23 0 -28 -14 -25 -9 1 -19 14 -21 28 -5 35 -29 58 -45 42 -17 -17 -38 -15
-38 3 0 8 7 15 15 15 8 0 20 10 26 23 6 12 18 30 27 39 14 17 17 17 51 -3 20
-11 41 -31 47 -44z m287 -5 c-8 -34 -10 -35 -29 -20 -13 12 -17 11 -26 -1 -8
-12 -9 -12 -5 1 3 8 11 27 18 41 11 22 16 25 31 16 12 -8 16 -19 11 -37z
m-208 30 c3 -6 -1 -7 -9 -4 -18 7 -21 14 -7 14 6 0 13 -4 16 -10z m-615 -130
c12 -8 12 -10 -3 -16 -21 -8 -22 -24 -2 -24 8 0 15 -5 15 -11 0 -5 -4 -8 -9
-4 -16 9 -22 -12 -6 -25 16 -13 10 -40 -9 -40 -7 0 -18 11 -24 25 -15 32 -16
75 -2 75 6 0 10 7 10 15 0 17 9 19 30 5z m475 -150 c14 0 31 -37 22 -47 -3 -2
-14 0 -24 6 -15 7 -20 21 -20 53 0 25 2 32 4 16 2 -16 10 -28 18 -28z m-555
14 c0 -18 -36 -18 -43 0 -7 19 0 25 24 19 10 -3 19 -12 19 -19z m-50 -24 c0
-5 -4 -10 -9 -10 -6 0 -13 5 -16 10 -3 6 1 10 9 10 9 0 16 -4 16 -10z m-10
-40 c0 -5 -4 -10 -10 -10 -5 0 -10 5 -10 10 0 6 5 10 10 10 6 0 10 -4 10 -10z
m-19 -20 c24 0 29 -4 29 -23 0 -29 -18 -47 -46 -47 -12 0 -27 -6 -34 -14 -6
-8 -17 -13 -24 -10 -8 3 -20 -2 -29 -10 -9 -9 -22 -16 -31 -16 -8 0 -18 -4
-21 -10 -10 -16 -55 -12 -55 4 0 8 5 18 11 22 8 4 7 9 -2 15 -11 8 -10 12 6
21 10 6 29 21 40 32 37 36 114 64 123 44 2 -5 17 -8 33 -8z m207 -161 c-18
-12 -48 -11 -48 1 0 6 11 16 25 22 14 6 26 16 26 22 1 6 4 0 6 -13 3 -13 -1
-27 -9 -32z m-2 -55 c-4 -9 -9 -14 -13 -11 -3 4 -15 0 -27 -8 -29 -21 -38 -19
-34 8 2 18 8 22 36 19 19 -1 32 3 32 10 0 6 3 9 6 5 4 -3 4 -14 0 -23z m-159
-76 c-3 -8 -6 -5 -6 6 -1 11 2 17 5 13 3 -3 4 -12 1 -19z m40 -15 c-3 -3 -11
-2 -17 2 -9 6 -9 10 1 16 14 8 27 -7 16 -18z m-117 7 c0 -5 -4 -10 -10 -10 -5
0 -10 5 -10 10 0 6 5 10 10 10 6 0 10 -4 10 -10z m-350 -24 c0 -3 -4 -8 -10
-11 -5 -3 -10 -1 -10 4 0 6 5 11 10 11 6 0 10 -2 10 -4z m-64 -80 c20 -21 17
-28 -6 -14 -11 7 -20 16 -20 20 0 12 10 9 26 -6z m-138 -109 c-1 -2 3 -11 10
-20 11 -13 10 -16 -6 -21 -45 -15 -73 27 -29 43 21 8 32 8 25 -2z m332 -103
c0 -8 -2 -14 -4 -14 -2 0 -12 -3 -20 -6 -13 -5 -15 -1 -12 17 3 13 5 25 5 26
3 9 31 -12 31 -23z m-1303 -816 c-3 -8 -6 -5 -6 6 -1 11 2 17 5 13 3 -3 4 -12
1 -19z m-97 -67 c0 -6 -4 -13 -10 -16 -5 -3 -10 1 -10 9 0 9 5 16 10 16 6 0
10 -4 10 -9z m-251 -233 c5 -13 7 -26 4 -30 -2 -5 1 -8 6 -8 6 0 11 -4 11 -10
0 -5 -7 -10 -16 -10 -8 0 -13 -4 -10 -8 5 -8 -20 -36 -84 -96 l-20 -20 2 55
c2 44 7 59 30 83 15 17 28 38 28 48 0 27 39 23 49 -4z m28 -20 c-3 -7 -5 -2
-5 12 0 14 2 19 5 13 2 -7 2 -19 0 -25z m-159 -193 c-3 -3 -9 2 -12 12 -6 14
-5 15 5 6 7 -7 10 -15 7 -18z m-28 -11 c0 -8 -5 -12 -10 -9 -6 4 -8 11 -5 16
9 14 15 11 15 -7z m-50 -69 c0 -8 -7 -15 -15 -15 -16 0 -20 12 -8 23 11 12 23
8 23 -8z m-40 -41 c0 -8 -5 -12 -10 -9 -6 4 -8 11 -5 16 9 14 15 11 15 -7z m0
-28 c0 -11 -19 -15 -25 -6 -3 5 1 10 9 10 9 0 16 -2 16 -4z m-1060 -1207 c0
-21 -4 -30 -13 -26 -7 3 -28 -14 -47 -36 -47 -55 -99 -106 -126 -124 -12 -8
-25 -26 -29 -41 -10 -39 -33 -61 -92 -88 -29 -12 -53 -27 -53 -33 0 -11 -68
-47 -75 -40 -2 3 3 26 12 52 10 32 21 47 33 47 9 0 34 22 56 50 21 27 44 49
51 50 7 0 30 18 53 40 22 22 49 44 60 50 11 6 20 17 20 25 0 8 11 17 25 21 14
3 25 11 25 18 0 6 9 17 20 24 12 7 18 17 15 22 -5 9 15 17 48 19 13 1 17 -7
17 -30z"/>
<path d="M12487 14093 c-9 -9 -8 -25 2 -42 7 -11 12 -10 29 5 16 13 19 21 10
31 -11 14 -31 17 -41 6z"/>
<path d="M12241 13848 c0 -10 -6 -18 -13 -18 -9 0 -9 -3 0 -12 16 -16 25 -5
19 24 -3 14 -5 16 -6 6z"/>
<path d="M12231 13462 c-19 -6 -36 -22 -128 -116 -29 -30 -64 -57 -78 -60 -19
-5 -25 -13 -25 -35 0 -17 -6 -31 -15 -35 -8 -3 -20 -17 -25 -31 -6 -15 -23
-30 -39 -36 -16 -6 -32 -17 -35 -25 -3 -8 -12 -14 -21 -14 -8 0 -15 -4 -15
-10 0 -5 -7 -10 -15 -10 -8 0 -17 -11 -21 -24 -3 -13 -14 -26 -25 -29 -22 -6
-36 -34 -23 -47 14 -14 104 0 104 16 0 8 6 14 13 14 29 1 51 31 57 78 5 43 7
47 32 47 30 1 55 19 64 47 7 23 90 108 105 108 18 0 36 24 31 42 -3 12 13 34
47 67 33 31 47 50 39 53 -7 3 -19 3 -27 0z"/>
<path d="M12957 13464 c-3 -3 -3 -12 0 -20 4 -11 9 -12 19 -3 8 6 11 15 8 20
-6 10 -18 12 -27 3z"/>
<path d="M12870 13392 c-8 -3 -23 -13 -34 -24 -17 -16 -18 -18 -3 -18 9 0 17
5 17 10 0 6 6 10 14 10 8 0 18 5 21 11 9 13 4 18 -15 11z"/>
<path d="M11750 12962 c-8 -3 -21 -13 -28 -24 -7 -10 -19 -18 -27 -18 -12 0
-75 -70 -75 -84 0 -4 14 1 31 10 18 9 41 13 55 10 20 -5 24 -3 24 18 0 13 9
30 21 38 24 16 23 58 -1 50z"/>
<path d="M11883 12730 c-37 -27 -59 -57 -50 -67 2 -2 16 6 31 18 15 12 35 19
46 16 11 -3 20 -1 20 4 0 5 7 9 15 9 19 0 19 17 1 36 -19 18 -15 19 -63 -16z"/>
<path d="M11402 12693 c-18 -4 -21 -7 -12 -18 9 -11 6 -17 -14 -27 -35 -18
-95 -113 -89 -139 7 -25 23 -35 33 -19 4 7 15 10 24 7 9 -4 16 -2 16 3 0 6 6
9 12 8 8 -2 12 7 10 25 -2 18 1 27 11 27 8 0 22 11 31 25 9 14 23 25 31 25 8
0 20 10 26 23 7 12 16 25 21 28 5 3 2 13 -7 23 -16 15 -44 18 -93 9z"/>
<path d="M11712 12558 c-16 -16 -15 -28 3 -28 8 0 15 2 15 4 0 2 3 11 6 20 7
19 -7 21 -24 4z"/>
<path d="M11657 12523 c-13 -13 -7 -21 13 -16 11 3 20 9 20 14 0 10 -24 12
-33 2z"/>
<path d="M11907 12510 c-3 -11 -1 -23 4 -26 5 -3 9 6 9 20 0 31 -6 34 -13 6z"/>
<path d="M11205 12472 c-13 -9 -45 -79 -45 -97 0 -21 24 -18 46 6 10 11 26 18
35 16 14 -4 17 3 17 32 0 34 -11 51 -33 51 -5 0 -14 -4 -20 -8z"/>
<path d="M11121 12321 c-29 -22 -25 -53 9 -58 23 -3 25 0 26 37 2 45 -1 47
-35 21z"/>
<path d="M11078 12242 c-6 -23 8 -62 22 -62 8 0 7 6 0 20 -6 12 -8 30 -5 40 4
11 2 20 -3 20 -5 0 -12 -8 -14 -18z"/>
<path d="M11380 12225 c0 -8 5 -15 10 -15 6 0 10 7 10 15 0 8 -4 15 -10 15 -5
0 -10 -7 -10 -15z"/>
<path d="M11324 12165 c-4 -8 -15 -15 -25 -15 -10 0 -19 -5 -19 -10 0 -6 -11
-15 -25 -20 -16 -6 -23 -14 -19 -25 4 -10 0 -15 -10 -15 -9 0 -16 -4 -16 -10
0 -5 4 -10 9 -10 16 0 71 35 71 45 0 6 12 21 25 34 14 13 25 27 25 32 0 14
-10 10 -16 -6z"/>
<path d="M11040 12114 c0 -22 -29 -43 -60 -44 -56 0 -68 -46 -13 -48 20 -1 40
-7 44 -14 13 -21 21 -1 9 23 -11 19 -9 25 18 46 19 14 29 30 25 38 -7 20 -23
19 -23 -1z"/>
<path d="M10689 12098 c-6 -10 -7 -23 -4 -28 3 -5 -3 -13 -12 -19 -28 -15 -6
-26 22 -11 14 7 24 21 23 29 -2 9 3 15 10 14 6 -2 12 6 12 16 0 25 -38 24 -51
-1z"/>
<path d="M11197 12029 c-4 -16 -3 -18 9 -8 16 13 19 29 5 29 -5 0 -11 -9 -14
-21z"/>
<path d="M10490 11890 c-6 -11 -20 -20 -30 -20 -11 0 -20 -5 -20 -10 0 -16 33
-26 38 -12 2 7 12 12 22 12 16 0 30 18 30 41 0 17 -29 9 -40 -11z"/>
<path d="M10395 11821 c-3 -5 -1 -12 5 -16 13 -8 50 3 50 16 0 12 -47 12 -55
0z"/>
<path d="M10554 11822 c-7 -5 -7 -14 1 -29 l12 -23 11 25 c7 14 12 28 12 30 0
8 -24 5 -36 -3z"/>
<path d="M10427 11775 c-8 -8 -18 -11 -23 -7 -5 4 -2 -1 5 -10 15 -20 41 -24
41 -7 0 7 8 18 18 25 16 12 15 13 -5 14 -12 0 -28 -7 -36 -15z"/>
<path d="M10522 11757 c-7 -8 -7 -18 -2 -27 8 -13 11 -12 24 5 22 30 1 50 -22
22z"/>
<path d="M10880 11755 c0 -8 -9 -15 -20 -15 -17 0 -19 -5 -14 -24 8 -33 -25
-51 -98 -51 -66 0 -75 -6 -55 -34 10 -15 13 -37 9 -72 -4 -41 -2 -51 9 -47 8
3 18 19 23 36 7 24 15 32 32 32 18 0 24 6 24 21 0 19 2 20 17 8 13 -11 17 -11
20 -1 6 17 33 15 33 -2 0 -18 27 -28 36 -14 4 7 9 36 10 66 2 30 6 63 9 73 4
12 -1 21 -15 29 -16 9 -20 8 -20 -5z"/>
<path d="M10311 11694 c0 -11 3 -14 6 -6 3 7 2 16 -1 19 -3 4 -6 -2 -5 -13z"/>
<path d="M10254 11641 c-10 -17 -24 -30 -30 -28 -7 1 -13 -2 -13 -8 0 -5 13
-9 30 -7 16 1 29 -2 29 -8 0 -5 9 -10 20 -10 13 0 20 7 20 20 0 11 -4 20 -10
20 -5 0 -7 6 -4 13 3 8 -2 19 -10 26 -12 10 -17 7 -32 -18z"/>
<path d="M10231 11524 c0 -11 3 -14 6 -6 3 7 2 16 -1 19 -3 4 -6 -2 -5 -13z"/>
<path d="M10575 11490 c3 -5 11 -10 16 -10 6 0 7 5 4 10 -3 6 -11 10 -16 10
-6 0 -7 -4 -4 -10z"/>
<path d="M10721 11474 c0 -11 3 -14 6 -6 3 7 2 16 -1 19 -3 4 -6 -2 -5 -13z"/>
<path d="M9757 11039 c-22 -25 -23 -63 -1 -55 9 3 20 6 25 6 11 0 12 57 1 64
-5 3 -16 -4 -25 -15z"/>
<path d="M9755 10950 c3 -5 8 -10 11 -10 2 0 4 5 4 10 0 6 -5 10 -11 10 -5 0
-7 -4 -4 -10z"/>
<path d="M9545 10750 c-3 -5 1 -10 10 -10 9 0 13 5 10 10 -3 6 -8 10 -10 10
-2 0 -7 -4 -10 -10z"/>
<path d="M9574 10653 c10 -11 37 -12 30 -2 -3 5 -12 9 -21 9 -9 0 -13 -3 -9
-7z"/>
<path d="M8925 10140 c3 -5 13 -10 21 -10 8 0 14 5 14 10 0 6 -9 10 -21 10
-11 0 -17 -4 -14 -10z"/>
<path d="M8206 9553 c-6 -14 -5 -15 5 -6 7 7 10 15 7 18 -3 3 -9 -2 -12 -12z"/>
<path d="M9220 10190 c0 -5 5 -10 11 -10 5 0 7 5 4 10 -3 6 -8 10 -11 10 -2 0
-4 -4 -4 -10z"/>
<path d="M8227 9284 c-3 -5 1 -15 9 -22 16 -14 18 -5 5 17 -5 7 -11 9 -14 5z"/>
<path d="M8065 9071 c-3 -5 -1 -12 5 -16 5 -3 10 1 10 9 0 18 -6 21 -15 7z"/>
<path d="M7945 8920 c3 -5 10 -10 16 -10 5 0 9 5 9 10 0 6 -7 10 -16 10 -8 0
-12 -4 -9 -10z"/>
<path d="M7862 9219 c2 -7 10 -15 17 -17 8 -3 12 1 9 9 -2 7 -10 15 -17 17 -8
3 -12 -1 -9 -9z"/>
<path d="M7305 8650 c3 -5 8 -10 11 -10 2 0 4 5 4 10 0 6 -5 10 -11 10 -5 0
-7 -4 -4 -10z"/>
<path d="M18517 19154 c-8 -8 1 -24 14 -24 5 0 9 7 9 15 0 15 -12 20 -23 9z"/>
<path d="M17870 18535 c0 -8 2 -15 4 -15 2 0 6 7 10 15 3 8 1 15 -4 15 -6 0
-10 -7 -10 -15z"/>
<path d="M16705 18210 c3 -5 8 -10 11 -10 2 0 4 5 4 10 0 6 -5 10 -11 10 -5 0
-7 -4 -4 -10z"/>
<path d="M16754 18195 c-4 -8 -14 -15 -23 -16 -9 -1 -5 -4 9 -8 27 -8 50 3 50
25 0 19 -29 18 -36 -1z"/>
<path d="M16380 17891 c0 -6 5 -13 10 -16 6 -3 10 1 10 9 0 9 -4 16 -10 16 -5
0 -10 -4 -10 -9z"/>
<path d="M15905 17490 c-3 -5 -1 -10 4 -10 6 0 11 5 11 10 0 6 -2 10 -4 10 -3
0 -8 -4 -11 -10z"/>
<path d="M15730 17270 c0 -5 5 -10 10 -10 6 0 10 5 10 10 0 6 -4 10 -10 10 -5
0 -10 -4 -10 -10z"/>
<path d="M15620 17156 c0 -9 0 -19 -1 -23 0 -4 4 -9 10 -11 14 -5 14 35 1 43
-5 3 -10 -1 -10 -9z"/>
<path d="M15575 17150 c-3 -5 -1 -10 4 -10 6 0 11 5 11 10 0 6 -2 10 -4 10 -3
0 -8 -4 -11 -10z"/>
<path d="M14306 15830 c-18 -37 -26 -77 -19 -92 5 -9 54 12 73 32 8 8 15 22
15 30 0 8 6 16 13 16 6 1 15 2 20 3 4 0 13 11 21 24 12 19 12 20 0 11 -8 -6
-25 -11 -39 -12 -14 -1 -26 -6 -28 -12 -7 -19 -23 -10 -20 12 5 36 -16 30 -36
-12z"/>
<path d="M14180 15795 c-10 -13 -9 -15 9 -15 12 0 21 6 21 15 0 8 -4 15 -9 15
-5 0 -14 -7 -21 -15z"/>
<path d="M14136 15781 c-4 -7 -5 -15 -2 -18 9 -9 19 4 14 18 -4 11 -6 11 -12
0z"/>
<path d="M14100 15725 c0 -8 4 -15 10 -15 6 0 6 -9 0 -25 -6 -15 -6 -26 0 -30
15 -9 12 -25 -5 -25 -17 0 -19 -9 -5 -30 8 -13 10 -12 10 3 0 9 7 17 16 17 8
0 22 6 29 14 12 12 11 15 -6 19 -11 3 -19 9 -18 14 6 33 -3 73 -16 73 -8 0
-15 -7 -15 -15z"/>
<path d="M14185 15670 c3 -5 8 -10 11 -10 2 0 4 5 4 10 0 6 -5 10 -11 10 -5 0
-7 -4 -4 -10z"/>
</g>
</svg>
